<?xml version="1.0" encoding="UTF-8"?>
<svg xmlns="http://www.w3.org/2000/svg" xmlns:xlink="http://www.w3.org/1999/xlink" width="30px" height="24px" viewBox="0 0 28 22" version="1.1">
<g id="surface1">
<path style=" stroke:none;fill-rule:nonzero;fill:rgb(0%,0%,0%);fill-opacity:1;" d="M 25.289062 6.460938 C 25.289062 6.394531 25.375 6.324219 25.375 6.257812 C 25.375 6.257812 25.375 6.257812 25.375 6.1875 C 25.375 6.1875 25.375 6.1875 25.375 6.117188 C 25.375 6.050781 25.375 5.980469 25.375 5.914062 C 25.375 5.914062 25.375 5.914062 25.375 5.84375 C 25.375 5.773438 25.289062 5.707031 25.289062 5.636719 C 25.199219 5.570312 25.199219 5.570312 25.113281 5.5 L 15.488281 0.6875 C 15.226562 0.550781 14.789062 0.550781 14.523438 0.6875 L 3.148438 6.875 C 3.148438 6.875 3.0625 6.945312 3.0625 6.945312 C 3.0625 6.945312 3.0625 6.945312 2.976562 6.945312 C 2.886719 7.011719 2.886719 7.082031 2.800781 7.148438 C 2.800781 7.148438 2.800781 7.148438 2.800781 7.21875 C 2.625 7.425781 2.625 7.492188 2.625 7.5625 L 2.625 15.8125 C 2.625 16.019531 2.800781 16.292969 3.0625 16.363281 L 12.6875 21.175781 C 12.863281 21.242188 13.039062 21.3125 13.125 21.3125 C 13.300781 21.3125 13.476562 21.242188 13.648438 21.175781 L 25.023438 14.988281 C 25.199219 14.851562 25.375 14.710938 25.375 14.507812 C 25.375 14.300781 25.289062 14.09375 25.113281 13.957031 C 24.324219 13.335938 24.148438 12.445312 24.675781 11.617188 L 25.289062 10.585938 C 25.289062 10.519531 25.375 10.449219 25.375 10.382812 C 25.375 10.382812 25.375 10.3125 25.375 10.3125 C 25.375 10.242188 25.375 10.105469 25.289062 10.039062 C 25.289062 10.039062 25.289062 9.96875 25.289062 9.96875 C 25.289062 9.898438 25.199219 9.832031 25.113281 9.761719 C 24.324219 9.144531 24.148438 8.25 24.675781 7.425781 Z M 23.273438 10.175781 L 13.125 15.675781 L 4.375 11.34375 L 4.375 8.867188 L 12.6875 12.992188 C 12.863281 13.0625 13.039062 13.132812 13.125 13.132812 C 13.300781 13.132812 13.476562 13.0625 13.648438 12.992188 L 22.664062 8.113281 C 22.574219 8.800781 22.75 9.488281 23.273438 10.175781 Z M 13.125 19.800781 L 4.375 15.46875 L 4.375 12.992188 L 12.6875 17.117188 C 12.863281 17.1875 13.039062 17.257812 13.125 17.257812 C 13.300781 17.257812 13.476562 17.1875 13.648438 17.117188 L 22.664062 12.238281 C 22.574219 12.992188 22.75 13.75 23.273438 14.367188 Z M 13.125 19.800781 "/>
</g>
</svg>
